{"title":"The Falls (Peter Greenaway, 1980)","uid":9161294,"size":3231227724,"categoryP":"video","categoryS":"movies","magnet":"?xt=urn:btih:6eaa8083f60587f9bd1adc2cbfb9d8d77a116769&amp;dn=The+Falls+%28Peter+Greenaway%2C+1980%29&amp;tr=udp%3A%2F%2Ftracker.openbittorrent.com%3A80&amp;tr=udp%3A%2F%2Fopen.demonii.com%3A1337&amp;tr=udp%3A%2F%2Ftracker.coppersurfer.tk%3A6969&amp;tr=udp%3A%2F%2Fexodus.desync.com%3A6969","seeders":8,"leechers":2,"uploader":"moonflux","files":1,"time":1383876919,"description":"The planet has been affected by a mysterious occurrence known as the Violent Unknown Event, or V.U.E. It has caused immortality and disability. Victims have learned new and peculiar languages. Some firmly believe in the responsibility of birds. In this three-hour film, ninety-two biographies are presented of victims whose surnames begin with the letters F A L L. Presented in the mock documentary style of 'Water Wrackets' and 'Dear Phone', this is the culmination of the first period of Greenaway's work. It refers to shorts such as 'A Walk Through H' and 'Vertical Features Remake', and forwards to the likes of 'Drowning by Numbers' (there is reference to the three generations of Cissie Colpitts). \n\nGeneral\nUnique ID                                : 202336748121270380131791728287526106662 (0x9838A3E484CC1AC7AF1B1FF05C4B3626)\nComplete name                            : Peter Greenaway - (1980) The Falls.mkv\nFormat                                   : Matroska\nFormat version                           : Version 2\nFile size                                : 3.01 GiB\nDuration                                 : 3h 6mn\nOverall bit rate                         : 2 305 Kbps\nEncoded date                             : UTC 2013-06-05 18:00:04\nWriting application                      : mkvmerge v6.2.0 ('Promised Land') built on Apr 28 2013 12:22:01\nWriting library                          : libebml v1.3.0 + libmatroska v1.4.0\n\nVideo\nID                                       : 1\nFormat                                   : AVC\nFormat/Info                              : Advanced Video Codec\nFormat profile                           : &lt;a class=&quot;__cf_email__&quot; href=&quot;/cdn-cgi/l/email-protection&quot; data-cfemail=&quot;89c1e0eee1c9c5baa7b8&quot;&gt;[email&amp;#160;protected]&lt;/a&gt;&lt;script cf-hash='f9e31' type=&quot;text/javascript&quot;&gt;\n/* &lt;![CDATA[ */!function(){try{var t=&quot;currentScript&quot;in document?document.currentScript:function(){for(var t=document.getElementsByTagName(&quot;script&quot;),e=t.length;e--;)if(t[e].getAttribute(&quot;cf-hash&quot;))return t[e]}();if(t&amp;&amp;t.previousSibling){var e,r,n,i,c=t.previousSibling,a=c.getAttribute(&quot;data-cfemail&quot;);if(a){for(e=&quot;&quot;,r=parseInt(a.substr(0,2),16),n=2;a.length-n;n+=2)i=parseInt(a.substr(n,2),16)^r,e+=String.fromCharCode(i);e=document.createTextNode(e),c.parentNode.replaceChild(e,c)}}}catch(u){}}();/* ]]&gt; */&lt;/script&gt;\nFormat settings, CABAC                   : Yes\nFormat settings, ReFrames                : 7 frames\nCodec ID                                 : V_MPEG4/ISO/AVC\nDuration                                 : 3h 6mn\nBit rate                                 : 2 111 Kbps\nWidth                                    : 718 pixels\nHeight                                   : 576 pixels\nDisplay aspect ratio                     : 4:3\nOriginal display aspect ratio            : 4:3\nFrame rate mode                          : Constant\nFrame rate                               : 25.000 fps\nColor space                              : YUV\nChroma subsampling                       : 4:2:0\nBit depth                                : 8 bits\nScan type                                : Progressive\nBits/(Pixel*Frame)                       : 0.204\nStream size                              : 2.70 GiB (90%)\nWriting library                          : x264 core 133 r2334 a3ac64b\nEncoding settings                        : cabac=1 // deblock=1:-3:-3 / analyse=0x3:0x133 / me=umh / subme=9 / psy=1 / psy_rd=1.00:0.00 // me_range=24 / chroma_me=1 / trellis=2 / 8x8dct=1 / cqm=0 / deadzone=21,11 / fast_pskip=0 / chroma_qp_offset=-2 / threads=3 / lookahead_threads=1 / sliced_threads=0 / nr=0 / decimate=0 / interlaced=0 / bluray_compat=0 / constrained_intra=0 / bframes=5 / b_pyramid=2 / b_adapt=2 / b_bias=0 / direct=3 / weightb=1 / open_gop=0 / weightp=2 / keyint=250 / keyint_min=25 / scenecut=40 / intra_refresh=0 / rc_lookahead=100 / rc=2pass / mbtree=1 / bitrate=2111 / ratetol=1.0 / qcomp=0.60 / qpmin=0 / qpmax=69 / qpstep=4 / cplxblur=20.0 / qblur=0.5 / vbv_maxrate=17500 / vbv_bufsize=17500 / nal_hrd=none / ip_ratio=1.40 / aq=1:1.00\nLanguage                                 : English\nDefault                                  : Yes\nForced                                   : No\n\nAudio\nID                                       : 2\nFormat                                   : AC-3\nFormat/Info                              : Audio Coding 3\nMode extension                           : CM (complete main)\nFormat settings, Endianness              : Big\nCodec ID                                 : A_AC3\nDuration                                 : 3h 6mn\nBit rate mode                            : Constant\nBit rate                                 : 192 Kbps\nChannel(s)                               : 2 channels\nChannel positions                        : Front: L R\nSampling rate                            : 48.0 KHz\nBit depth                                : 16 bits\nCompression mode                         : Lossy\nStream size                              : 257 MiB (8%)\nDefault                                  : Yes\nForced                                   : No\n\n","torrent":{"xt":"urn:btih:6eaa8083f60587f9bd1adc2cbfb9d8d77a116769","amp;dn":"The+Falls+%28Peter+Greenaway%2C+1980%29","amp;tr":["udp%3A%2F%2Ftracker.openbittorrent.com%3A80","udp%3A%2F%2Fopen.demonii.com%3A1337","udp%3A%2F%2Ftracker.coppersurfer.tk%3A6969","udp%3A%2F%2Fexodus.desync.com%3A6969"],"infoHash":"6eaa8083f60587f9bd1adc2cbfb9d8d77a116769","infoHashBuffer":{"type":"Buffer","data":[110,170,128,131,246,5,135,249,189,26,220,44,191,185,216,215,122,17,103,105]},"announce":[],"urlList":[]}}